<?xml version="1.0" standalone="no"?>
<!DOCTYPE svg PUBLIC "-//W3C//DTD SVG 20010904//EN"
 "http://www.w3.org/TR/2001/REC-SVG-20010904/DTD/svg10.dtd">
<svg version="1.0" xmlns="http://www.w3.org/2000/svg"
 width="257.000000pt" height="257.000000pt" viewBox="0 0 257.000000 257.000000"
 preserveAspectRatio="xMidYMid meet">
<metadata>
Created by potrace 1.11, written by Peter Selinger 2001-2013
</metadata>
<g transform="translate(0.000000,257.000000) scale(0.100000,-0.100000)"
fill="#000000" stroke="none">
<path d="M824 2496 c7 -27 14 -25 -154 -61 -216 -48 -275 -72 -315 -133 -23
-34 -32 -40 -102 -56 -43 -10 -85 -24 -94 -32 -8 -8 -47 -22 -85 -31 l-69 -18
51 -6 c29 -4 57 -9 62 -13 6 -3 30 1 54 10 24 9 68 22 98 29 30 7 67 17 81 23
17 7 40 7 65 1 22 -5 69 -6 105 -3 52 5 75 2 115 -14 27 -11 57 -23 67 -26 9
-3 17 -10 17 -15 0 -5 -34 -37 -75 -71 l-74 -61 -3 -72 c-3 -71 -3 -72 -38
-89 -19 -9 -56 -21 -83 -27 -42 -10 -49 -9 -68 10 -16 16 -23 18 -35 8 -8 -6
-14 -17 -14 -23 1 -28 103 -72 142 -61 13 4 50 20 83 35 84 38 122 50 165 50
21 0 97 23 171 51 74 28 151 54 172 56 46 6 53 -2 112 -127 22 -47 57 -115 78
-151 20 -36 37 -70 37 -74 0 -5 6 -16 13 -24 8 -9 23 -40 35 -70 18 -43 20
-57 10 -64 -9 -6 -6 -7 10 -4 12 3 22 1 22 -3 0 -14 -24 -18 -44 -8 -13 7 -16
7 -12 -1 4 -6 -4 -15 -18 -21 -14 -5 -26 -13 -26 -18 0 -5 -20 -7 -44 -5 -29
3 -53 -1 -68 -11 -13 -8 -44 -16 -70 -17 -27 -2 -48 -6 -48 -10 0 -10 -64 -20
-166 -24 -50 -2 -95 -5 -100 -7 -5 -1 -32 1 -60 5 -53 8 -84 34 -84 72 0 9 -7
23 -15 31 -8 8 -11 22 -8 30 5 12 0 15 -22 12 -23 -2 -31 3 -47 33 l-19 37
-68 -13 c-134 -26 -148 -32 -155 -66 -12 -60 -7 -85 23 -113 22 -22 30 -39 34
-84 5 -43 12 -62 30 -77 13 -11 26 -27 30 -36 9 -25 84 -63 177 -88 124 -34
270 -111 270 -143 0 -9 8 -23 19 -30 22 -16 32 -100 30 -264 0 -75 4 -128 15
-164 9 -30 16 -54 16 -55 0 -5 -108 -75 -116 -75 -15 0 -74 -69 -74 -86 0 -8
-39 -34 -87 -58 -80 -40 -90 -48 -105 -88 -10 -24 -18 -47 -18 -51 0 -4 191
-7 424 -7 l425 0 12 35 c7 20 23 42 36 50 13 9 23 22 23 29 0 8 22 28 49 46
28 17 62 47 77 66 24 30 33 34 74 34 26 0 87 7 136 15 135 24 235 77 352 190
88 86 157 134 194 135 27 0 72 44 99 97 22 41 25 60 24 129 -1 44 -5 86 -10
94 -5 8 -4 15 2 17 15 5 7 57 -16 101 -23 44 -98 132 -114 132 -6 0 7 -19 28
-42 l40 -43 -42 39 c-23 21 -41 43 -40 49 4 21 -183 113 -209 103 -8 -3 -14
-1 -14 5 0 7 -10 9 -26 5 -18 -5 -24 -3 -19 5 5 8 -1 9 -23 4 -16 -3 -32 -2
-35 2 -14 22 -335 -2 -357 -26 -3 -4 -13 -7 -22 -9 -29 -5 -98 -48 -91 -57 5
-4 1 -6 -7 -3 -19 6 -61 68 -54 79 3 5 0 9 -7 9 -7 0 -9 3 -6 7 4 3 -1 12 -11
20 -11 10 -12 12 -2 8 8 -4 6 1 -4 9 -14 11 -16 16 -6 16 8 0 38 12 67 27 51
27 52 27 88 10 54 -26 74 -22 90 16 12 28 11 34 -2 50 -15 16 -15 17 3 17 10
1 48 28 84 61 36 33 78 68 94 76 16 8 24 18 19 22 -6 3 -12 14 -14 24 -3 13
-22 0 -84 -58 -44 -41 -88 -77 -97 -81 -10 -3 -18 -9 -18 -14 0 -10 -40 -25
-59 -21 -20 4 -149 -38 -153 -50 -2 -5 -16 -12 -30 -13 -15 -2 -25 1 -22 5 3
5 0 9 -6 9 -13 0 -44 67 -42 93 0 9 -3 15 -8 12 -4 -3 -6 4 -3 14 3 12 -4 28
-19 43 -12 12 -22 28 -20 34 1 7 -4 14 -12 17 -17 7 -77 110 -79 137 -1 11 -5
20 -10 20 -4 0 -5 5 -2 10 3 6 1 10 -4 10 -6 0 -11 4 -11 10 0 9 -40 73 -62
100 -7 8 -12 19 -10 24 2 5 -13 41 -32 80 -19 39 -73 152 -121 251 -48 99 -92
183 -99 187 -24 16 -38 9 -32 -16z m843 -1038 c-3 -8 -6 -5 -6 6 -1 11 2 17 5
13 3 -3 4 -12 1 -19z m-218 -170 l28 -63 -26 -22 c-14 -12 -39 -22 -55 -23
-57 0 -189 -52 -223 -87 -27 -28 -36 -29 -28 -3 5 14 1 22 -12 26 -10 3 -32
12 -50 20 -17 8 -36 14 -42 14 -6 0 -11 14 -11 31 0 16 3 28 8 25 12 -7 132
23 176 46 23 11 54 31 69 44 16 13 36 24 45 24 9 1 28 7 42 15 40 23 48 18 79
-47z m-137 -924 c46 -24 44 -35 -10 -84 -29 -26 -52 -52 -52 -57 0 -15 -48
-31 -109 -36 -47 -4 -57 -1 -73 17 -26 31 -22 44 17 63 19 9 35 20 35 25 0 4
28 28 62 53 65 47 72 48 130 19z"/>
</g>
</svg>
